<?xml version="1.0" encoding="UTF-8"?>
<svg xmlns="http://www.w3.org/2000/svg" width="614" height="614" viewBox="0 0 614 614">
  <defs>
    <style>
      .logo-line { stroke: #000000; stroke-width: 1.13; stroke-linecap: round; fill: none; }
      .logo-node { fill: #000000; }
    </style>
  </defs>
  <g id="flowforce-logo">
    
    <line x1="337.72" y1="475.04" x2="343.37" y2="496.52" class="logo-line" />
    <line x1="184.57" y1="179.48" x2="206.04" y2="199.83" class="logo-line" />
    <line x1="176.66" y1="190.22" x2="196.44" y2="209.43" class="logo-line" />
    <line x1="389.71" y1="299.29" x2="424.75" y2="289.12" class="logo-line" />
    <line x1="370.49" y1="375.58" x2="389.71" y2="396.49" class="logo-line" />
    <line x1="406.10" y1="433.79" x2="424.18" y2="451.87" class="logo-line" />
    <line x1="223.56" y1="235.43" x2="242.78" y2="254.64" class="logo-line" />
    <line x1="199.83" y1="336.02" x2="219.04" y2="330.37" class="logo-line" />
    <line x1="322.46" y1="228.08" x2="331.50" y2="191.92" class="logo-line" />
    <line x1="367.67" y1="393.10" x2="379.54" y2="404.97" class="logo-line" />
    <line x1="455.83" y1="350.71" x2="481.82" y2="358.06" class="logo-line" />
    <line x1="131.45" y1="272.73" x2="156.31" y2="280.64" class="logo-line" />
    <line x1="239.39" y1="232.04" x2="252.38" y2="244.47" class="logo-line" />
    <line x1="135.97" y1="259.73" x2="160.83" y2="266.51" class="logo-line" />
    <line x1="184.00" y1="449.61" x2="199.83" y2="434.92" class="logo-line" />
    <line x1="336.02" y1="230.34" x2="344.50" y2="195.31" class="logo-line" />
    <line x1="268.77" y1="132.01" x2="277.25" y2="161.40" class="logo-line" />
    <line x1="415.70" y1="424.18" x2="433.22" y2="443.39" class="logo-line" />
    <line x1="256.90" y1="135.40" x2="264.82" y2="165.92" class="logo-line" />
    <line x1="175.53" y1="438.31" x2="189.65" y2="423.05" class="logo-line" />
    <line x1="387.45" y1="286.29" x2="421.35" y2="276.68" class="logo-line" />
    <line x1="268.21" y1="423.05" x2="274.42" y2="402.71" class="logo-line" />
    <line x1="451.87" y1="364.28" x2="477.30" y2="370.49" class="logo-line" />
    <line x1="264.25" y1="492.56" x2="270.47" y2="473.35" class="logo-line" />
    <line x1="351.28" y1="472.22" x2="356.93" y2="497.65" class="logo-line" />
    <line x1="131.45" y1="356.93" x2="153.49" y2="350.71" class="logo-line" />
    <line x1="360.32" y1="385.19" x2="373.32" y2="398.18" class="logo-line" />
    <line x1="135.97" y1="371.62" x2="157.44" y2="364.84" class="logo-line" />
    <line x1="185.13" y1="180.61" x2="197.00" y2="191.92" class="logo-line" />
    <line x1="298.72" y1="334.33" x2="310.03" y2="337.15" class="logo-line" />
    <line x1="205.48" y1="436.61" x2="216.78" y2="436.61" class="logo-line" />
    <line x1="204.35" y1="352.41" x2="224.69" y2="346.76" class="logo-line" />
    <line x1="250.12" y1="488.04" x2="255.77" y2="471.09" class="logo-line" />
    <line x1="285.16" y1="426.44" x2="290.81" y2="408.36" class="logo-line" />
    <line x1="180.61" y1="376.14" x2="193.05" y2="372.19" class="logo-line" />
    <line x1="238.82" y1="230.91" x2="251.82" y2="244.47" class="logo-line" />
    <line x1="338.85" y1="480.13" x2="343.93" y2="500.47" class="logo-line" />
    <line x1="336.02" y1="230.91" x2="340.54" y2="212.26" class="logo-line" />
    <line x1="184.57" y1="448.48" x2="198.70" y2="435.48" class="logo-line" />
    <line x1="200.39" y1="364.84" x2="204.35" y2="352.97" class="logo-line" />
    <line x1="121.28" y1="351.28" x2="133.14" y2="356.93" class="logo-line" />
    <line x1="244.47" y1="447.92" x2="247.86" y2="460.35" class="logo-line" />
    <line x1="379.54" y1="385.19" x2="390.27" y2="396.49" class="logo-line" />
    
    <circle cx="267.08" cy="447.92" r="27.13" class="logo-node" />
    <circle cx="181.18" cy="284.03" r="27.13" class="logo-node" />
    <circle cx="177.79" cy="279.51" r="26.00" class="logo-node" />
    <circle cx="241.08" cy="333.76" r="24.87" class="logo-node" />
    <circle cx="339.41" cy="453.57" r="23.17" class="logo-node" />
    <circle cx="180.05" cy="352.97" r="23.17" class="logo-node" />
    <circle cx="262.56" cy="263.69" r="21.47" class="logo-node" />
    <circle cx="351.84" cy="365.41" r="21.47" class="logo-node" />
    <circle cx="212.82" cy="411.75" r="21.47" class="logo-node" />
    <circle cx="291.94" cy="384.62" r="21.47" class="logo-node" />
    <circle cx="310.03" cy="315.68" r="20.91" class="logo-node" />
    <circle cx="323.59" cy="245.60" r="19.78" class="logo-node" />
    <circle cx="372.19" cy="297.59" r="19.78" class="logo-node" />
    <circle cx="276.12" cy="177.79" r="19.78" class="logo-node" />
    <circle cx="252.38" cy="505.56" r="17.52" class="logo-node" />
    <circle cx="117.88" cy="368.80" r="17.52" class="logo-node" />
    <circle cx="437.74" cy="354.11" r="17.52" class="logo-node" />
    <circle cx="258.03" cy="117.88" r="16.95" class="logo-node" />
    <circle cx="119.01" cy="261.43" r="16.95" class="logo-node" />
    <circle cx="355.24" cy="513.47" r="16.95" class="logo-node" />
    <circle cx="440.00" cy="459.22" r="16.39" class="logo-node" />
    <circle cx="168.75" cy="174.40" r="16.39" class="logo-node" />
    <circle cx="401.58" cy="218.48" r="15.82" class="logo-node" />
    <circle cx="436.61" cy="278.38" r="15.82" class="logo-node" />
    <circle cx="494.26" cy="369.93" r="15.82" class="logo-node" />
    <circle cx="446.78" cy="174.40" r="15.26" class="logo-node" />
    <circle cx="496.52" cy="263.69" r="15.26" class="logo-node" />
    <circle cx="340.54" cy="178.92" r="15.26" class="logo-node" />
    <circle cx="356.37" cy="114.49" r="15.26" class="logo-node" />
    <circle cx="259.16" cy="269.34" r="15.26" class="logo-node" />
    <circle cx="504.43" cy="467.13" r="14.13" class="logo-node" />
    <circle cx="64.76" cy="360.89" r="13.56" class="logo-node" />
    <circle cx="268.21" cy="549.64" r="13.00" class="logo-node" />
    <circle cx="468.26" cy="57.98" r="6.78" class="logo-node" />
    <circle cx="556.42" cy="260.29" r="6.78" class="logo-node" />
  </g>
</svg>